<svg width="55" height="55" viewBox="0 0 55 55" fill="none" xmlns="http://www.w3.org/2000/svg">
<rect width="55" height="55" rx="6" fill="url(#paint0_linear_291_183)"/>
<path d="M41.4861 15.8982L39.1018 13.5139C38.1331 12.5437 36.8195 12 35.4489 12H15.5522C13.5901 12 12 13.5901 12 15.5522V39.4478C12 41.4099 13.5901 43 15.5522 43H39.4478C41.4099 43 43 41.4099 43 39.4478V19.5511C43 18.1805 42.4563 16.8669 41.4861 15.8982ZM17.1666 20.0728V16.8438C17.1666 16.309 17.6006 15.875 18.1353 15.875H31.6978C32.2326 15.875 32.6666 16.309 32.6666 16.8438V20.0728C32.6666 20.6076 32.2326 21.0416 31.6978 21.0416H18.1353C17.6006 21.0416 17.1666 20.6076 17.1666 20.0728ZM27.5 37.8334C24.2903 37.8334 21.6875 35.2306 21.6875 32.0209C21.6875 28.811 24.2903 26.2084 27.5 26.2084C30.7097 26.2084 33.3125 28.811 33.3125 32.0209C33.3125 35.2306 30.7097 37.8334 27.5 37.8334Z" fill="white"/>
<defs>
<linearGradient id="paint0_linear_291_183" x1="-3.13053e-07" y1="25.8822" x2="55" y2="25.8822" gradientUnits="userSpaceOnUse">
<stop stop-color="#95268F"/>
<stop offset="0.5" stop-color="#C3178E"/>
<stop offset="1" stop-color="#EA1B2C"/>
</linearGradient>
</defs>
</svg>
