<svg width="55" height="55" viewBox="0 0 55 55" fill="none" xmlns="http://www.w3.org/2000/svg">
<rect x="0.5" y="0.5" width="54" height="54" rx="5.5" fill="white"/>
<path d="M29.091 17.1666C29.091 17.5886 29.1447 17.9989 29.2459 18.3917L19.2482 23.7906C18.2658 22.889 16.9275 22.3334 15.4545 22.3334C12.4465 22.3334 10 24.6505 10 27.5C10 30.3495 12.4465 32.6666 15.4545 32.6666C16.9277 32.6666 18.2663 32.1108 19.2487 31.209L29.246 36.6076C29.1448 37.0007 29.091 37.4112 29.091 37.8334C29.091 40.6827 31.5373 43 34.5455 43C37.5538 43 40 40.6827 40 37.8334C40 34.9839 37.5538 32.6666 34.5455 32.6666C32.9626 32.6666 31.5353 33.3082 30.5381 34.3313L20.6735 29.0044C20.8268 28.5282 20.9092 28.0231 20.9092 27.5C20.9092 26.9767 20.8267 26.4713 20.6733 25.9949L30.5376 20.6681C31.5348 21.6916 32.9623 22.3334 34.5455 22.3334C37.5538 22.3334 40 20.0161 40 17.1666C40 14.3173 37.5538 12 34.5455 12C31.5373 12 29.091 14.3173 29.091 17.1666Z" fill="#CBD5E1"/>
<rect x="0.5" y="0.5" width="54" height="54" rx="5.5" stroke="#F4F4F4"/>
</svg>
