<svg width="55" height="55" viewBox="0 0 55 55" fill="none" xmlns="http://www.w3.org/2000/svg">
<rect width="55" height="55" rx="6" fill="url(#paint0_linear_285_160)"/>
<path d="M29.591 17.1666C29.591 17.5886 29.6447 17.9989 29.7459 18.3917L19.7482 23.7906C18.7658 22.889 17.4275 22.3334 15.9545 22.3334C12.9465 22.3334 10.5 24.6505 10.5 27.5C10.5 30.3495 12.9465 32.6666 15.9545 32.6666C17.4277 32.6666 18.7663 32.1108 19.7487 31.209L29.746 36.6076C29.6448 37.0007 29.591 37.4112 29.591 37.8334C29.591 40.6827 32.0373 43 35.0455 43C38.0538 43 40.5 40.6827 40.5 37.8334C40.5 34.9839 38.0538 32.6666 35.0455 32.6666C33.4626 32.6666 32.0353 33.3082 31.0381 34.3313L21.1735 29.0044C21.3268 28.5282 21.4092 28.0231 21.4092 27.5C21.4092 26.9767 21.3267 26.4713 21.1733 25.9949L31.0376 20.6681C32.0348 21.6916 33.4623 22.3334 35.0455 22.3334C38.0538 22.3334 40.5 20.0161 40.5 17.1666C40.5 14.3173 38.0538 12 35.0455 12C32.0373 12 29.591 14.3173 29.591 17.1666Z" fill="white"/>
<defs>
<linearGradient id="paint0_linear_285_160" x1="-3.13053e-07" y1="25.8822" x2="55" y2="25.8822" gradientUnits="userSpaceOnUse">
<stop stop-color="#95268F"/>
<stop offset="0.5" stop-color="#C3178E"/>
<stop offset="1" stop-color="#EA1B2C"/>
</linearGradient>
</defs>
</svg>
