<svg width="16" height="10" viewBox="0 0 16 10" fill="none" xmlns="http://www.w3.org/2000/svg">
<path d="M0 1.25C0 0.559644 0.596954 0 1.33333 0H14.6667C15.403 0 16 0.559644 16 1.25C16 1.94036 15.403 2.5 14.6667 2.5H1.33333C0.596953 2.5 0 1.94036 0 1.25Z" fill="#727991"/>
<path d="M2.66667 5C2.66667 4.30964 3.26362 3.75 4 3.75H12C12.7364 3.75 13.3333 4.30964 13.3333 5C13.3333 5.69036 12.7364 6.25 12 6.25H4C3.26362 6.25 2.66667 5.69036 2.66667 5Z" fill="#727991"/>
<path d="M5.33333 8.75C5.33333 8.05964 5.93029 7.5 6.66667 7.5H9.33333C10.0697 7.5 10.6667 8.05964 10.6667 8.75C10.6667 9.44036 10.0697 10 9.33333 10H6.66667C5.93029 10 5.33333 9.44036 5.33333 8.75Z" fill="#727991"/>
</svg>
