<svg width="16" height="10" viewBox="0 0 16 10" fill="none" xmlns="http://www.w3.org/2000/svg">
<path d="M0 8.75C0 9.44036 0.596954 10 1.33333 10H14.6667C15.403 10 16 9.44036 16 8.75C16 8.05964 15.403 7.5 14.6667 7.5H1.33333C0.596953 7.5 0 8.05964 0 8.75Z" fill="#727991"/>
<path d="M2.66667 5C2.66667 5.69036 3.26362 6.25 4 6.25H12C12.7364 6.25 13.3333 5.69036 13.3333 5C13.3333 4.30964 12.7364 3.75 12 3.75H4C3.26362 3.75 2.66667 4.30964 2.66667 5Z" fill="#727991"/>
<path d="M5.33333 1.25C5.33333 1.94036 5.93029 2.5 6.66667 2.5H9.33333C10.0697 2.5 10.6667 1.94036 10.6667 1.25C10.6667 0.559644 10.0697 0 9.33333 0H6.66667C5.93029 0 5.33333 0.559644 5.33333 1.25Z" fill="#727991"/>
</svg>
