<svg width="300" height="36" viewBox="0 0 300 36" fill="none" xmlns="http://www.w3.org/2000/svg">
<path fill-rule="evenodd" clip-rule="evenodd" d="M9.16071 18.9732C4.10179 18.9732 0 14.7268 0 9.48571C0 4.24643 4.10179 0 9.16071 0H61.8321V7.8125H10.3054C9.67321 7.8125 9.16071 8.5625 9.16071 9.48571C9.16071 10.4107 9.67321 11.1607 10.3054 11.1607H61.8321V18.9732H9.16071ZM145.42 9.48571C145.42 14.7268 141.318 18.9732 136.259 18.9732H95.0375V11.1607H135.114C135.746 11.1607 136.259 10.4107 136.259 9.48571C136.259 8.5625 135.746 7.8125 135.116 7.8125H91.6018V18.9732H83.5857V0H136.257C141.316 0 145.418 4.24643 145.418 9.4875L145.42 9.48571ZM156.87 18.9732C151.811 18.9732 147.709 14.7268 147.709 9.48571C147.709 4.24643 151.811 0 156.87 0H209.543V18.9732H201.527V7.8125H158.014C157.382 7.8125 156.871 8.5625 156.871 9.48571C156.871 10.4107 157.382 11.1607 158.014 11.1607H198.091V18.9732H156.87ZM238.168 9.48571C238.168 14.7268 242.27 18.9732 247.329 18.9732H288.55V11.1607H248.473C247.841 11.1607 247.329 10.4107 247.329 9.48571C247.329 8.5625 247.841 7.8125 248.473 7.8125H291.984V18.9732H300V0H247.329C242.27 0 238.168 4.24643 238.168 9.4875V9.48571ZM76.7179 7.8125H81.2982V0H64.1214V7.8125H68.7018V18.9732H76.7179V7.8125ZM220.993 18.9732V13.3929H227.862V18.9732H235.879V0H227.862V5.58036H220.993V0H212.977V18.9732H220.993Z" fill="url(#paint0_linear_55_44)"/>
<path d="M200.441 33.7785V35.7143H199.236V32.6803H200.168C200.787 32.4839 201.098 31.4964 201.098 29.7178V25.8107H206.946V32.6803H208.248V35.7143H207.066V33.7785H200.441ZM201.684 32.6803H205.753V26.9107H202.291V29.6732C202.291 31.0107 202.089 32.0107 201.684 32.6803ZM210.287 25.8107H216.136V26.9089H211.48V29.1982H215.527V30.2964H211.48V32.6803H216.196V33.7785H210.287V25.8107ZM222.47 33.7785H218.4V25.8107H222.243C222.92 25.8107 223.48 26.0125 223.925 26.4125C224.378 26.8143 224.605 27.3178 224.605 27.9232C224.605 28.6018 224.32 29.1518 223.746 29.5768C224.128 29.766 224.427 30.0321 224.643 30.3803C224.864 30.725 224.977 31.1071 224.977 31.5232C224.977 32.1607 224.737 32.7018 224.261 33.141C223.782 33.566 223.186 33.7785 222.47 33.7785ZM222.47 30.2018H219.593V32.6803H222.47C222.637 32.6858 222.803 32.6573 222.959 32.5965C223.115 32.5357 223.257 32.444 223.377 32.3268C223.497 32.2135 223.592 32.076 223.656 31.9234C223.72 31.7707 223.75 31.6064 223.746 31.441C223.75 31.276 223.719 31.112 223.656 30.9597C223.592 30.8074 223.497 30.6702 223.377 30.5571C223.257 30.4396 223.115 30.3475 222.96 30.2864C222.804 30.2253 222.637 30.1965 222.47 30.2018ZM222.243 26.9089H219.593V29.1053H222.243C222.391 29.1143 222.539 29.0923 222.679 29.0408C222.818 28.9893 222.945 28.9093 223.052 28.806C223.158 28.7027 223.242 28.5783 223.298 28.4408C223.354 28.3032 223.381 28.1555 223.377 28.0071C223.381 27.862 223.355 27.7177 223.299 27.5835C223.244 27.4493 223.161 27.3284 223.055 27.2285C222.948 27.1231 222.821 27.0405 222.682 26.9855C222.542 26.9306 222.393 26.9045 222.243 26.9089ZM227.28 25.8107H233.128V26.9089H228.475V29.1982H232.521V30.2964H228.475V32.6803H233.189V33.7785H227.28V25.8107ZM235.046 33.7785H234.736V32.6803H235.046C235.282 32.6932 235.514 32.6131 235.691 32.4571C236.096 32.0875 236.3 31.1625 236.3 29.6821V25.8107H242.112V33.7785H240.92V26.9089H237.493V29.6821C237.493 32.4143 236.678 33.7785 235.046 33.7785ZM244.443 29.8018C244.443 28.6196 244.841 27.6375 245.636 26.85C246.432 26.0643 247.423 25.6696 248.609 25.6696C249.795 25.6696 250.784 26.0625 251.58 26.85C252.384 27.6446 252.786 28.6285 252.786 29.8018C252.786 30.966 252.384 31.9446 251.58 32.7393C250.784 33.5268 249.795 33.9196 248.609 33.9196C247.423 33.9196 246.432 33.5268 245.636 32.741C244.841 31.9535 244.443 30.9732 244.443 29.8018ZM245.671 29.8018C245.671 30.65 245.95 31.3625 246.507 31.9375C247.071 32.5035 247.773 32.7875 248.609 32.7875C249.436 32.7875 250.132 32.5035 250.696 31.9375C250.974 31.6562 251.192 31.3221 251.338 30.9549C251.483 30.5877 251.554 30.1949 251.545 29.8C251.545 28.95 251.262 28.2393 250.696 27.6643C250.428 27.3829 250.103 27.1608 249.744 27.0123C249.384 26.8637 248.998 26.792 248.609 26.8018C247.764 26.8018 247.064 27.0893 246.507 27.6643C245.95 28.2232 245.671 28.9357 245.671 29.8018ZM256.295 26.9089V33.7785H255.102V25.8107H262.012V33.7785H260.82V26.9089H256.295ZM265.818 33.7785H264.625V25.8107H265.818L268.945 31.2518L272.073 25.8107H273.266V33.7785H272.073V28.0643L269.339 32.8107H268.552L265.818 28.0535V33.7785ZM275.871 25.8107H281.721V26.9089H277.066V29.1982H281.112V30.2964H277.066V32.6803H281.78V33.7785H275.871V25.8107ZM285.177 33.7785H283.984V25.8107H285.177V29.1982H289.702V25.8107H290.895V33.7785H289.702V30.2964H285.177V33.7785ZM295.893 26.9089H292.98V25.8107H300V26.9089H297.087V33.7785H295.893V26.9089Z" fill="black"/>
<defs>
<linearGradient id="paint0_linear_55_44" x1="-1.70756e-06" y1="8.92853" x2="300" y2="8.92853" gradientUnits="userSpaceOnUse">
<stop stop-color="#95268F"/>
<stop offset="0.5" stop-color="#C3178E"/>
<stop offset="1" stop-color="#EA1B2C"/>
</linearGradient>
</defs>
</svg>
