<svg width="110" height="110" viewBox="0 0 110 110" fill="none" xmlns="http://www.w3.org/2000/svg">
<circle cx="55" cy="55" r="55" fill="#F4F5F8"/>
<path d="M63.7977 41.0169C61.9767 41.0169 60.3071 41.598 58.8355 42.7439C57.4246 43.8426 56.4853 45.2419 55.9322 46.2595C55.3792 45.2418 54.4399 43.8426 53.029 42.7439C51.5574 41.598 49.8878 41.0169 48.0668 41.0169C42.9849 41.0169 39.1526 45.2023 39.1526 50.7524C39.1526 56.7484 43.9337 60.8509 51.1716 67.0613C52.4007 68.116 53.7939 69.3115 55.2419 70.5865C55.4328 70.7548 55.6779 70.8474 55.9322 70.8474C56.1866 70.8474 56.4317 70.7548 56.6226 70.5866C58.0707 69.3114 59.4638 68.116 60.6937 67.0607C67.9308 60.8509 72.7119 56.7484 72.7119 50.7524C72.7119 45.2023 68.8796 41.0169 63.7977 41.0169Z" fill="#ED1C24"/>
</svg>
